<?xml version="1.0" standalone="no"?><!DOCTYPE svg PUBLIC "-//W3C//DTD SVG 1.1//EN" "http://www.w3.org/Graphics/SVG/1.1/DTD/svg11.dtd"><svg t="1563623241045" class="icon" viewBox="0 0 1024 1024" version="1.1" xmlns="http://www.w3.org/2000/svg" p-id="3890" xmlns:xlink="http://www.w3.org/1999/xlink" width="24" height="24"><defs><style type="text/css"></style></defs><path d="M656.224 384.864l-125.696 100.448a70.144 70.144 0 0 0-31.904-7.52c-39.744 0-72 32.896-72 73.696s32.256 73.76 72 73.76 72-32.928 72-73.76a72.32 72.32 0 0 0-1.248-13.952l126.272-101.12c13.952-11.2 16.48-31.776 5.504-45.952a31.648 31.648 0 0 0-44.928-5.6z m0 0" p-id="3891"></path><path d="M512 36.64c-282.848 0-512 234.624-512 524 0 171.424 80.48 323.648 204.8 419.2 6.176 4.608 13.952 7.552 22.176 7.552 19.872 0 36-16.448 36-36.8 0-13.472-7.104-25.248-17.696-31.776a444.864 444.864 0 0 1-97.504-105.472L192 787.296c15.328-9.024 20.448-29.024 11.648-44.704A31.52 31.52 0 0 0 160 730.592l-44.224 26.016a453.472 453.472 0 0 1-42.656-163.232h50.848c17.696 0 32-14.592 32-32.768s-14.272-32.768-32-32.768H73.152c4.096-58.304 19.104-113.6 42.848-163.776l44 25.92a31.52 31.52 0 0 0 43.648-12c8.8-15.648 3.68-35.776-11.648-44.672l-43.904-25.952a447.2 447.2 0 0 1 116.576-119.328l25.28 44.928a31.552 31.552 0 0 0 43.648 12c15.328-9.024 20.48-29.024 11.68-44.672L320 155.36a426.368 426.368 0 0 1 160-43.776v52c0 18.176 14.272 32.8 32 32.8s32-14.624 32-32.8V111.584c56.768 4.224 110.752 19.424 159.552 43.648l-25.504 45.28a33.216 33.216 0 0 0 11.648 44.672 31.52 31.52 0 0 0 43.648-12l25.472-45.28a446.912 446.912 0 0 1 117.056 119.648L832 333.408a33.12 33.12 0 0 0-11.648 44.704 31.552 31.552 0 0 0 43.648 12l44-25.952a456.832 456.832 0 0 1 42.88 163.776h-50.752c-17.728 0-32 14.656-32 32.8a32.32 32.32 0 0 0 32 32.768h50.752a457.024 457.024 0 0 1-42.624 163.232L864 730.592a31.552 31.552 0 0 0-43.648 11.968c-8.768 15.68-3.648 35.776 11.648 44.704l44.256 26.016a444.416 444.416 0 0 1-100.256 107.552 38.72 38.72 0 0 0-13.952 29.696c0 20.384 16.128 36.8 36 36.8 10.048 0 19.104-4.256 25.728-11.104C945.504 880.736 1024 730.112 1024 560.64c0-289.376-229.248-524-512-524z m0 0" p-id="3892"></path></svg>