<?xml version="1.0" standalone="no"?><!DOCTYPE svg PUBLIC "-//W3C//DTD SVG 1.1//EN" "http://www.w3.org/Graphics/SVG/1.1/DTD/svg11.dtd"><svg t="1563623219958" class="icon" viewBox="0 0 1024 1024" version="1.1" xmlns="http://www.w3.org/2000/svg" p-id="3091" xmlns:xlink="http://www.w3.org/1999/xlink" width="24" height="24"><defs><style type="text/css"></style></defs><path d="M691.2 422.4c30.4 0 54.4 24 54.4 54.4s-24 54.4-54.4 54.4c-30.4 0-54.4-24-54.4-54.4S660.8 422.4 691.2 422.4z" p-id="3092"></path><path d="M332.8 422.4c28.8 0 52.8 24 52.8 54.4s-24 54.4-52.8 54.4c-28.8 0-52.8-24-52.8-54.4S304 422.4 332.8 422.4z" p-id="3093"></path><path d="M798.4 275.2c32 0 56 25.6 56 56l0 358.4c0 32-25.6 56-56 56L225.6 745.6c-32 0-56-25.6-56-56L169.6 332.8c0-32 25.6-56 56-56L798.4 276.8M798.4 243.2 225.6 243.2c-49.6 0-88 40-88 88l0 358.4c0 49.6 40 88 88 88l574.4 0c49.6 0 88-40 88-88L888 332.8C888 283.2 848 243.2 798.4 243.2L798.4 243.2z" p-id="3094"></path><path d="M838.4 185.6c57.6 0 105.6 48 105.6 105.6l0 440c0 57.6-48 105.6-105.6 105.6L185.6 836.8c-57.6 0-105.6-48-105.6-105.6L80 292.8c0-57.6 48-105.6 105.6-105.6L838.4 187.2M838.4 153.6 185.6 153.6c-76.8 0-137.6 62.4-137.6 137.6l0 440c0 76.8 62.4 137.6 137.6 137.6l654.4 0c76.8 0 137.6-62.4 137.6-137.6L977.6 292.8C977.6 216 915.2 153.6 838.4 153.6L838.4 153.6z" p-id="3095"></path><path d="M764.8 868.8c0 3.2 1.6 6.4 1.6 9.6 0 36.8-30.4 67.2-65.6 67.2s-65.6-30.4-65.6-67.2c0-3.2 0-6.4 1.6-9.6l-32 0c0 3.2 0 6.4 0 9.6 0 54.4 44.8 99.2 97.6 99.2s97.6-44.8 97.6-99.2c0-3.2 0-6.4 0-9.6L764.8 868.8z" p-id="3096"></path><path d="M390.4 868.8c0 3.2 1.6 6.4 1.6 9.6 0 36.8-30.4 67.2-67.2 67.2s-67.2-30.4-67.2-67.2c0-3.2 0-6.4 1.6-9.6l-32 0c0 3.2 0 6.4 0 9.6 0 54.4 44.8 99.2 99.2 99.2 54.4 0 99.2-44.8 99.2-99.2 0-3.2 0-6.4 0-9.6L390.4 868.8z" p-id="3097"></path><path d="M176 75.2l126.4 80 56 0L190.4 49.6c-6.4-4.8-16-1.6-20.8 4.8C166.4 60.8 168 70.4 176 75.2z" p-id="3098"></path><path d="M721.6 153.6l131.2-80c6.4-4.8 9.6-12.8 4.8-20.8-4.8-6.4-12.8-9.6-20.8-4.8L664 153.6 721.6 153.6z" p-id="3099"></path></svg>