<?xml version="1.0" standalone="no"?><!DOCTYPE svg PUBLIC "-//W3C//DTD SVG 1.1//EN" "http://www.w3.org/Graphics/SVG/1.1/DTD/svg11.dtd"><svg t="1563516599009" class="icon" viewBox="0 0 1024 1024" version="1.1" xmlns="http://www.w3.org/2000/svg" p-id="4479" xmlns:xlink="http://www.w3.org/1999/xlink" width="24" height="24"><defs><style type="text/css"></style></defs><path d="M821.937 879.505l-182.221-182.22c-15.621-15.622-15.621-40.948 0-56.57 15.62-15.62 40.947-15.62 56.568 0L879.8 824.232V679.505c0-22.091 17.909-40 40-40s40 17.909 40 40v240c0 22.091-17.909 40-40 40h-240c-22.091 0-40-17.909-40-40s17.909-40 40-40h142.137z m-620.073 0H344c22.091 0 40 17.909 40 40s-17.909 40-40 40H104c-22.091 0-40-17.909-40-40v-240c0-22.091 17.909-40 40-40s40 17.909 40 40v144.726l183.516-183.515c15.62-15.621 40.947-15.621 56.568 0 15.621 15.62 15.621 40.947 0 56.568l-182.22 182.221zM821.937 144H679.8c-22.091 0-40-17.909-40-40s17.909-40 40-40h240c22.091 0 40 17.909 40 40v240c0 22.091-17.909 40-40 40s-40-17.909-40-40V199.274L696.284 382.789c-15.62 15.621-40.947 15.621-56.568 0-15.621-15.62-15.621-40.947 0-56.568L821.936 144z m-620.073 0l182.22 182.22c15.621 15.622 15.621 40.948 0 56.57-15.62 15.62-40.947 15.62-56.568 0L144 199.273V344c0 22.091-17.909 40-40 40s-40-17.909-40-40V104c0-22.091 17.909-40 40-40h240c22.091 0 40 17.909 40 40s-17.909 40-40 40H201.864z" p-id="4480"></path></svg>