<?xml version="1.0" standalone="no"?><!DOCTYPE svg PUBLIC "-//W3C//DTD SVG 1.1//EN" "http://www.w3.org/Graphics/SVG/1.1/DTD/svg11.dtd"><svg t="1563623290860" class="icon" viewBox="0 0 1024 1024" version="1.1" xmlns="http://www.w3.org/2000/svg" p-id="4630" xmlns:xlink="http://www.w3.org/1999/xlink" width="24" height="24"><defs><style type="text/css"></style></defs><path d="M908.012344 428.769176c0.670876-27.753642-13.42957-41.406838-42.30134-41.406838H169.181277c-13.654916 0-23.503038 3.581448-29.769712 10.96625-8.504649 6.488579-12.756974 16.785673-12.533348 30.438868V928.560085c-0.223625 13.653196 4.028699 23.950289 12.533348 30.438868 6.266674 7.386522 16.114796 11.191595 29.769712 11.191596h696.529727c28.87177 0 42.970496-13.875101 42.30134-41.630464V428.769176z m-718.463946 21.039718h655.793765v457.711474H189.548398V449.808894z" fill="" p-id="4631"></path><path d="M567.356768 675.643106c12.311443-12.086097 18.354491-26.85742 18.354491-44.092064 0-17.458269-6.043049-32.229592-18.354491-44.541035-12.308002-12.309723-27.079326-18.354491-44.31569-18.354491-17.458269 0-32.229592 6.044769-44.541035 18.354491-12.086097 12.309723-18.352771 27.081046-18.352771 44.541035 0 17.234644 6.266674 32.004247 18.352771 44.092064 4.028699 4.030419 8.506369 7.388242 12.982319 10.293653v77.443225c0 8.728275 3.132477 16.116516 9.175526 22.159565 6.268394 6.268394 13.654916 9.177246 22.157844 9.177245 8.728275 0 16.116516-2.908851 22.159565-9.177245 6.270114-6.043049 9.175526-13.43129 9.175526-22.159565v-77.443225c4.701296-2.683506 8.95362-6.039608 13.205945-10.293653z" fill="" p-id="4632"></path><path d="M777.747061 236.731654c-11.635406-44.092064-34.691193-83.260927-69.160481-117.728494-51.924117-51.927557-114.594297-77.890475-188.008823-77.890475-73.636431 0-136.304891 25.962918-188.232448 77.890475-34.469288 34.467567-57.298009 73.636431-68.936855 117.728494-0.670876 1.790724-1.118127 3.805074-1.343473 5.819424-0.223625 2.237975-0.223625 4.252325-0.223625 6.268394v145.258511c0 8.504649 3.134197 15.891171 9.175525 22.157845 6.268394 6.043049 13.653196 9.177246 22.157845 9.177246 8.729995 0 16.114796-3.134197 22.157845-9.177246 6.266674-6.266674 9.175526-13.653196 9.175525-22.157845v-143.245882c9.175526-32.678564 26.41189-61.773959 52.149462-87.513252 39.616114-39.83974 87.736877-59.535984 143.915039-59.535983 56.179881 0 104.077019 19.696244 143.694853 59.535983 25.739293 25.739293 43.194122 54.834688 52.147742 87.513252v143.245882c0 8.504649 3.134197 15.891171 9.400871 22.157845 6.043049 6.043049 13.43129 9.177246 21.932499 9.177246 8.729995 0 16.118237-3.134197 22.383191-9.177246 6.046489-6.266674 8.95362-13.653196 8.95362-22.157845v-145.036606c0.223625-2.237975 0.223625-4.47767 0-6.713925-0.44209-2.01435-0.663996-3.805074-1.338312-5.595798z" fill="" p-id="4633"></path></svg>